<?xml version="1.0" encoding="UTF-8"?>
<svg width="104px" height="104px" viewBox="0 0 104 104" version="1.1" xmlns="http://www.w3.org/2000/svg" xmlns:xlink="http://www.w3.org/1999/xlink">
    <!-- Generator: Sketch 57.1 (83088) - https://sketch.com -->
    <title>okomo-logo_round_hero</title>
    <desc>Created with Sketch.</desc>
    <g id="Page-1" stroke="none" stroke-width="1" fill="none" fill-rule="evenodd">
        <g id="Desktop" transform="translate(-187.000000, -53.000000)">
            <g id="okomo-logo_round_hero" transform="translate(187.000000, 53.000000)">
                <circle id="Oval" stroke="#128D92" stroke-width="1.5" cx="52" cy="52" r="51.25"></circle>
                <path d="M52,51.9951863 C52,51.9951863 42.985025,43.8216955 39.8003328,41.2482026 C39.5407654,41.045793 39.281198,40.8433835 39.0116473,40.660251 C36.625624,38.9831432 33.6805324,38 30.5058236,38 C22.4891847,37.9903726 16,44.2554303 16,51.9951863 C16,59.7349422 22.4891847,66 30.5058236,66 C34.0099834,66 37.2246256,64.8048198 39.7304493,62.8000013 C42.9550749,60.2265083 52,51.9951863 52,51.9951863 Z" id="Path" fill="#128D92"></path>
                <path d="M52,52.0048193 C52,52.0048193 61.014975,60.1783133 64.1996672,62.7518072 C64.4592346,62.9542169 64.718802,63.1566265 64.9883527,63.339759 C67.374376,65.0168675 70.3194676,66 73.4941764,66 C81.5008319,66 88,59.7349398 88,51.9951807 C88,44.2554217 81.5008319,38 73.4941764,38 C69.9900166,38 66.7753744,39.1951807 64.2695507,41.2 C61.0449251,43.7638554 52,52.0048193 52,52.0048193 Z" id="Path" fill="#128D92"></path>
            </g>
        </g>
    </g>
</svg>